<?xml version="1.0"?>
<svg version="1.1" xmlns="http://www.w3.org/2000/svg" width="55px" height="40px" style=""><path fill="#515457" d="M23.886,26.305l0-6.11l-1.235,0l-0.325,1.235l-1.196,0l0-2.795l7.54,0l0,2.795l-1.209,0l-0.325-1.235l-1.235,0l0,6.11l1.235,0.39l0,1.105l-4.485,0l0-1.105z M37.07463,21.885l-0.806,0.169l-1.495,2.236l1.469,2.21l0.962,0.26l0,1.04l-3.536,0l0-1.04l0.403-0.143l-0.689-1.144l-1.404,2.327l-2.21,0l0-1.04l0.975-0.26l1.43-2.145l-1.573-2.301l-0.702-0.169l0-1.04l3.367-0.065l0,1.105l-0.39,0.078l0.676,1.144l1.352-2.262l2.171-0.065l0,1.105z M41.60526,20.195l0,4.095c0,1.495,0.429,2.08,1.703,2.08c1.378,0,1.677-0.741,1.677-2.275l0-3.9l-1.014-0.39l0-1.105l4.004-0.065l0,1.17l-0.975,0.39l0,3.9c0,2.509-0.962,3.861-3.757,3.861c-2.613,0-3.653-1.157-3.653-3.666l0-4.095l-0.962-0.39l0-1.105l3.991-0.065l0,1.17z M54.40389,26.136l0.468,0.988c-0.637,0.468-1.365,0.806-2.21,0.806c-1.495,0-1.924-1.04-1.924-2.535l0-2.99l-1.209,0l0-1.261l1.209-0.169l0-1.794l1.95-0.351l0,2.145l1.82,0l0,1.43l-1.82,0l0,2.86c0,0.832,0.143,1.17,0.689,1.17c0.351,0,0.858-0.208,1.027-0.299z"/><path fill="#" d=""/></svg>
